<svg id="Layer_1" data-name="Layer 1" xmlns="http://www.w3.org/2000/svg" width="2418.2" height="765.66" viewBox="0 0 2418.2 765.66">
  <path d="M1209.1,1159.16c-165,0-325.65-20.31-477.47-60.37-146.48-38.64-277.92-93.9-390.66-164.23-113.42-70.74-202.73-153.5-265.42-246-65.78-97-99.14-199.89-99.14-305.77S9.77,174.07,75.55,77.06c62.69-92.46,152-175.22,265.42-246,112.75-70.33,244.18-125.58,390.65-164.23,151.83-40.05,312.48-60.36,477.48-60.36s325.66,20.31,477.49,60.37c146.45,38.64,277.88,93.89,390.63,164.21C2190.66-98.16,2280-15.4,2342.66,77.06c65.77,97,99.13,199.88,99.13,305.77s-33.36,208.76-99.13,305.77c-62.71,92.47-152,175.22-265.44,246-112.73,70.32-244.16,125.57-390.64,164.22C1534.76,1138.85,1374.11,1159.16,1209.1,1159.16Zm0-1513.17c-161.6,0-318.86,19.87-467.4,59.06-142.65,37.63-270.44,91.31-379.83,159.54C253.15-67.59,167.81,11.35,108.23,99.22,47,189.57,15.9,285,15.9,382.83S47,576.09,108.23,666.43c59.59,87.88,144.92,166.82,253.64,234.63C471.25,969.29,599.05,1023,741.7,1060.61c148.54,39.19,305.8,59.06,467.4,59.06s318.87-19.87,467.41-59.06C1819.16,1023,1947,969.29,2056.32,901.07,2165,833.25,2250.38,754.31,2310,666.43c61.26-90.34,92.33-185.76,92.33-283.6S2371.24,189.57,2310,99.23c-59.58-87.87-144.92-166.82-253.65-234.64-109.4-68.23-237.18-121.91-379.8-159.54C1528-334.14,1370.71-354,1209.1-354Z" fill="#590925"/>
  <path d="M1209.1,1096.78c-151.55,0-299.09-18.65-438.52-55.43C636,1005.84,515.27,955.08,411.68,890.46c-104.27-65-186.38-141.13-244-226.16-60.54-89.28-91.24-184-91.24-281.47s30.7-192.19,91.24-281.47c57.65-85,139.76-161.12,244-226.16C515.28-189.42,636-240.19,770.58-275.69c139.43-36.78,287-55.43,438.52-55.43s299.1,18.65,438.53,55.44c134.54,35.49,255.28,86.25,358.88,150.87,104.29,65.05,186.39,141.15,244,226.17,60.53,89.28,91.23,184,91.23,281.47S2311.09,575,2250.55,664.3c-57.66,85-139.77,161.13-244,226.17-103.58,64.61-224.33,115.37-358.89,150.87C1508.2,1078.13,1360.66,1096.78,1209.1,1096.78Zm0-1388.41c-148.15,0-292.3,18.21-428.45,54.13C649.92-203,532.82-153.82,432.58-91.3,333-29.19,254.87,43.08,200.33,123.52c-56,82.62-84.43,169.86-84.43,259.31s28.41,176.69,84.43,259.31C254.87,722.57,333,794.85,432.58,857c100.24,62.53,217.35,111.72,348.08,146.21,136.14,35.92,280.29,54.13,428.44,54.13s292.31-18.21,428.45-54.13c130.73-34.49,247.84-83.68,348.06-146.2,99.57-62.1,177.71-134.38,232.26-214.82,56-82.62,84.43-169.87,84.43-259.31s-28.41-176.69-84.43-259.31C2163.33,43.09,2085.19-29.19,1985.61-91.3c-100.24-62.53-217.34-111.72-348-146.2C1501.41-273.42,1357.26-291.63,1209.1-291.63Z" fill="#590925"/>
  <path d="M1209.1,1034.41c-138.09,0-272.52-17-399.56-50.51-122.64-32.36-232.7-78.64-327.15-137.55C387.27,787,312.36,717.59,259.75,640c-55.3-81.55-83.34-168.07-83.34-257.17s28-175.63,83.34-257.17c52.61-77.6,127.52-147,222.64-206.36,94.45-58.91,204.51-105.18,327.14-137.54,127-33.51,261.48-50.51,399.57-50.51s272.54,17,399.58,50.52c122.61,32.34,232.67,78.62,327.12,137.53,95.13,59.34,170,128.77,222.65,206.36,55.3,81.55,83.34,168.07,83.34,257.17s-28,175.62-83.34,257.17c-52.62,77.6-127.53,147-222.65,206.36-94.43,58.9-204.49,105.18-327.13,137.53C1481.63,1017.41,1347.2,1034.41,1209.1,1034.41Zm0-1263.67c-134.69,0-265.74,16.56-389.49,49.21C700.8-148.71,594.38-104,503.29-47.19c-90.41,56.4-161.36,122-210.86,195-50.78,74.89-76.53,154-76.53,235s25.75,160.12,76.53,235c49.5,73,120.44,138.61,210.86,195,91.09,56.82,197.51,101.52,316.32,132.86,123.76,32.65,254.8,49.21,389.49,49.21s265.75-16.56,389.49-49.21c118.82-31.34,225.24-76,316.31-132.86,90.42-56.39,161.36-122,210.87-195,50.78-74.89,76.53-154,76.53-235s-25.75-160.12-76.53-235c-49.5-73-120.44-138.61-210.87-195C1823.81-104,1717.39-148.71,1598.6-180,1474.85-212.7,1343.8-229.26,1209.1-229.26Z" fill="#590925"/>
  <path d="M1209.1,972c-124.64,0-246-15.34-360.61-45.58-110.71-29.21-210.1-71-295.39-124.2-86-53.63-153.68-116.39-201.25-186.55-50.06-73.82-75.44-152.17-75.44-232.87S301.79,223.77,351.85,150C399.42,79.8,467.13,17,553.1-36.59c85.29-53.2,184.68-95,295.39-124.2,114.65-30.25,236-45.58,360.61-45.58s246,15.34,360.62,45.58c110.7,29.21,210.08,71,295.37,124.19C1951.07,17,2018.78,79.8,2066.35,150c50.06,73.81,75.44,152.16,75.44,232.87s-25.38,159.05-75.44,232.87c-47.57,70.16-115.29,132.93-201.26,186.55-85.28,53.2-184.67,95-295.38,124.2C1455.07,956.69,1333.74,972,1209.1,972Zm0-1138.91c-121.24,0-239.18,14.89-350.54,44.27C751.68-94.41,655.94-54.19,574-3.09,492.74,47.6,429,106.55,384.53,172.12,339,239.28,315.9,310.17,315.9,382.83S339,526.38,384.53,593.54C429,659.11,492.74,718.05,574,768.74c81.94,51.11,177.68,91.32,284.57,119.52,111.36,29.38,229.29,44.28,350.53,44.28s239.18-14.9,350.54-44.28c106.88-28.2,202.62-68.41,284.55-119.52,81.27-50.68,145-109.63,189.48-175.2,45.54-67.16,68.63-138,68.63-210.71s-23.09-143.55-68.63-210.71c-44.46-65.56-108.21-124.51-189.48-175.21-81.94-51.11-177.67-91.32-284.55-119.51C1448.29-152,1330.35-166.88,1209.1-166.88Z" fill="#590925"/>
  <path d="M1209.1,909.65c-111.18,0-219.4-13.67-321.65-40.65C788.66,842.93,700,805.64,623.81,758.14,547,710.22,486.48,654.13,444,591.4c-44.81-66.08-67.54-136.26-67.54-208.57S399.14,240.34,444,174.26C486.48,111.53,547,55.43,623.81,7.52,700-40,788.65-77.28,887.45-103.34,989.7-130.32,1097.92-144,1209.1-144s219.41,13.68,321.66,40.66C1629.54-77.28,1718.24-40,1794.38,7.51c76.83,47.92,137.34,104,179.87,166.75,44.82,66.08,67.54,136.25,67.54,208.57s-22.72,142.49-67.54,208.57c-42.53,62.73-103,118.83-179.87,166.74-76.13,47.5-164.83,84.79-263.62,110.86C1428.51,896,1320.29,909.65,1209.1,909.65Zm0-1014.16c-107.78,0-212.61,13.24-311.58,39.35C802.55-40.1,717.49-4.38,644.71,41c-72.11,45-128.66,97.26-168.08,155.4-40.29,59.42-60.73,122.14-60.73,186.41s20.44,127,60.73,186.41c39.42,58.13,96,110.41,168.08,155.4C717.5,770,802.56,805.76,897.52,830.81c99,26.12,203.8,39.36,311.58,39.36s212.62-13.24,311.58-39.36c95-25,180-60.77,252.8-106.17,72.12-45,128.67-97.26,168.09-155.4,40.3-59.43,60.73-122.14,60.73-186.41s-20.43-127-60.73-186.41C1902.15,138.29,1845.6,86,1773.48,41,1700.7-4.38,1615.64-40.1,1520.69-65.15,1421.72-91.27,1316.89-104.51,1209.1-104.51Z" fill="#590925"/>
  <path d="M1209.1,847.28c-97.73,0-192.84-12-282.7-35.73C839.53,788.63,761.52,755.82,694.52,714c-67.66-42.2-121-91.64-158.47-146.93-39.57-58.35-59.64-120.35-59.64-184.27s20.07-125.92,59.64-184.28c37.49-55.29,90.81-104.72,158.47-146.93,67-41.78,145-74.59,231.88-97.51,89.86-23.71,185-35.73,282.7-35.73s192.85,12,282.7,35.73C1578.67-23,1656.68,9.83,1723.67,51.62c67.67,42.21,121,91.65,158.48,146.93,39.57,58.36,59.64,120.36,59.64,184.28s-20.07,125.92-59.64,184.27c-37.49,55.29-90.81,104.73-158.48,146.93-67,41.79-145,74.6-231.87,97.52C1401.94,835.26,1306.83,847.28,1209.1,847.28Zm0-889.41c-94.33,0-186,11.58-272.63,34.42-83,21.91-157.42,53.15-221.05,92.84-63,39.27-112.31,84.89-146.69,135.59C533.68,272.41,515.9,327,515.9,382.83s17.78,110.41,52.83,162.11c34.38,50.7,83.73,96.32,146.69,135.59,63.64,39.69,138,70.93,221.06,92.84,86.57,22.84,178.29,34.42,272.62,34.42s186.06-11.58,272.63-34.42c83-21.91,157.42-53.15,221-92.84,63-39.27,112.31-84.89,146.69-135.59,35-51.69,52.83-106.24,52.83-162.11s-17.78-110.42-52.83-162.11c-34.38-50.7-83.73-96.32-146.7-135.59-63.63-39.7-138-70.93-221-92.84C1395.16-30.55,1303.43-42.13,1209.1-42.13Z" fill="#590925"/>
  <path d="M1209.1,784.9c-84.27,0-166.28-10.36-243.74-30.8-75-19.77-142.29-48.09-200.12-84.17-58.52-36.5-104.64-79.27-137.09-127.12-34.33-50.63-51.74-104.46-51.74-160s17.41-109.35,51.74-160C660.6,175,706.72,132.23,765.23,95.73c57.84-36.08,125.17-64.4,200.13-84.17,77.46-20.44,159.47-30.8,243.74-30.8s166.28,10.36,243.75,30.8c74.94,19.77,142.27,48.09,200.11,84.17,58.52,36.5,104.65,79.27,137.09,127.12,34.33,50.63,51.74,104.45,51.74,160s-17.41,109.35-51.74,160c-32.45,47.85-78.57,90.62-137.08,127.12-57.84,36.08-125.17,64.4-200.13,84.17C1375.38,774.54,1293.37,784.9,1209.1,784.9Zm0-764.65c-80.87,0-159.49,9.92-233.67,29.49-71.13,18.77-134.81,45.51-189.3,79.5-53.8,33.56-96,72.51-125.3,115.77C631,289,615.9,335.35,615.9,382.83S631,476.68,660.83,520.64c29.34,43.27,71.5,82.22,125.3,115.78,54.49,34,118.17,60.73,189.3,79.5,74.18,19.57,152.8,29.49,233.67,29.49s159.49-9.92,233.67-29.49c71.13-18.77,134.82-45.51,189.3-79.5,53.8-33.56,96-72.51,125.3-115.78,29.81-44,44.93-90.33,44.93-137.81S1787.18,289,1757.37,245c-29.33-43.25-71.49-82.21-125.31-115.78-54.48-34-118.17-60.73-189.29-79.49C1368.59,30.17,1290,20.25,1209.1,20.25Z" fill="#590925"/>
  <path d="M1209.1,722.53c-70.81,0-139.72-8.71-204.79-25.88C941.28,680,884.63,656.19,836,625.82c-49.37-30.79-88.29-66.89-115.7-107.31-29.09-42.9-43.84-88.55-43.84-135.68s14.75-92.78,43.84-135.68c27.41-40.42,66.33-76.52,115.7-107.31,48.68-30.37,105.33-54.2,168.36-70.83,65.08-17.17,134-25.88,204.79-25.88S1348.82,51.84,1413.89,69c63,16.62,119.67,40.45,168.36,70.82,49.37,30.8,88.3,66.9,115.7,107.32,29.09,42.9,43.84,88.54,43.84,135.68S1727,475.61,1698,518.51c-27.41,40.42-66.33,76.52-115.69,107.31-48.69,30.37-105.34,54.2-168.37,70.83C1348.82,713.82,1279.92,722.53,1209.1,722.53Zm0-639.91c-67.42,0-132.93,8.27-194.71,24.57-59.21,15.62-112.22,37.88-157.54,66.15-44.66,27.86-79.62,60.15-103.92,96-24.57,36.24-37,74.43-37,113.52s12.46,77.28,37,113.52c24.3,35.82,59.26,68.11,103.92,96,45.32,28.27,98.33,50.53,157.54,66.15,61.78,16.3,127.29,24.57,194.71,24.57s132.93-8.27,194.71-24.57c59.21-15.62,112.22-37.88,157.55-66.16,44.65-27.85,79.61-60.14,103.91-96,24.57-36.24,37-74.43,37-113.52s-12.46-77.28-37-113.52c-24.3-35.82-59.26-68.11-103.92-96-45.33-28.28-98.33-50.53-157.53-66.15C1342,90.89,1276.52,82.62,1209.1,82.62Z" fill="#590925"/>
  <path d="M1209.1,660.15c-57.35,0-113.15-7-165.83-20.95-51.12-13.48-97.08-32.82-136.61-57.48-40.22-25.09-71.95-54.53-94.31-87.51-23.84-35.17-35.94-72.64-35.94-111.38s12.09-76.21,35.94-111.38c22.36-33,54.09-62.43,94.31-87.51,39.53-24.66,85.5-44,136.61-57.49,52.68-13.89,108.47-20.94,165.83-20.94s113.15,7,165.83,20.94c51.11,13.49,97.08,32.83,136.61,57.49,40.22,25.09,72,54.53,94.31,87.51,23.85,35.16,35.94,72.64,35.94,111.38S1629.7,459,1605.85,494.21c-22.36,33-54.09,62.42-94.31,87.51-39.53,24.66-85.5,44-136.61,57.48C1322.25,653.1,1266.46,660.15,1209.1,660.15Zm0-515.15c-54,0-106.37,6.6-155.76,19.64-47.28,12.47-89.6,30.24-125.78,52.81-35.51,22.15-63.27,47.77-82.53,76.16s-29.13,58.53-29.13,89.22,9.8,60.71,29.13,89.22,47,54,82.53,76.16c36.17,22.57,78.49,40.33,125.78,52.81,49.4,13,101.8,19.64,155.76,19.64s106.36-6.61,155.76-19.64c47.29-12.47,89.61-30.24,125.79-52.81,35.5-22.15,63.27-47.77,82.52-76.16s29.13-58.53,29.13-89.22-9.8-60.71-29.13-89.22-47-54-82.53-76.16c-36.17-22.57-78.49-40.34-125.78-52.81C1315.47,151.6,1263.06,145,1209.1,145Z" fill="#590925"/>
  <path d="M1209.1,597.77a497.66,497.66,0,0,1-126.88-16c-39.19-10.33-74.47-25.19-104.85-44.14-31.06-19.38-55.6-42.15-72.92-67.7-18.6-27.44-28-56.73-28-87.08s9.44-59.65,28-87.08c17.32-25.55,41.86-48.33,72.92-67.7,30.38-19,65.66-33.81,104.85-44.15a510.46,510.46,0,0,1,253.76,0c39.19,10.34,74.47,25.2,104.85,44.15,31.06,19.37,55.6,42.15,72.92,67.7,18.6,27.43,28,56.73,28,87.08s-9.44,59.64-28,87.08c-17.32,25.55-41.85,48.32-72.92,67.7-30.38,18.95-65.66,33.8-104.85,44.14A497.66,497.66,0,0,1,1209.1,597.77Zm0-390.4a457.8,457.8,0,0,0-116.8,14.72c-35.37,9.33-67,22.6-94,39.46C971.91,278,951.34,297,937.13,317.91c-14.08,20.78-21.23,42.62-21.23,64.92s7.15,44.14,21.23,64.92c14.21,20.95,34.78,39.91,61.14,56.35,27,16.86,58.66,30.14,94,39.47a471.1,471.1,0,0,0,233.61,0c35.36-9.33,67-22.61,94-39.47,26.36-16.44,46.93-35.4,61.14-56.35,14.08-20.78,21.23-42.62,21.23-64.92s-7.15-44.14-21.23-64.92c-14.21-21-34.78-39.92-61.14-56.36-27-16.86-58.66-30.13-94-39.46A457.93,457.93,0,0,0,1209.1,207.37Z" fill="#590925"/>
  <path d="M1209.1,535.4c-60.52,0-117.71-14.88-161-41.9-46.21-28.82-71.67-68.13-71.67-110.67s25.46-81.85,71.67-110.68c43.31-27,100.5-41.89,161-41.89s117.71,14.88,161,41.89c46.22,28.83,71.67,68.14,71.67,110.68s-25.45,81.85-71.67,110.67C1326.81,520.52,1269.62,535.4,1209.1,535.4Zm0-265.65c-53.23,0-103,12.75-140.12,35.91-34.23,21.35-53.08,48.75-53.08,77.17S1034.75,438.65,1069,460c37.12,23.15,86.89,35.91,140.12,35.91s103-12.76,140.12-35.91c34.23-21.35,53.08-48.76,53.08-77.17s-18.85-55.82-53.08-77.17C1312.1,282.5,1262.33,269.75,1209.1,269.75Z" fill="#590925"/>
</svg>
